<mxfile host="www.draw.io" modified="2020-01-02T14:06:41.730Z" agent="Mozilla/5.0 (Macintosh; Intel Mac OS X 10_14_2) AppleWebKit/537.36 (KHTML, like Gecko) Chrome/79.0.3945.88 Safari/537.36" etag="-pFW9yOhkGzAM1ZWFrho" version="12.4.8" type="github">
  <diagram name="Page-1" id="13e1069c-82ec-6db2-03f1-153e76fe0fe0">
    <mxGraphModel dx="884" dy="591" grid="1" gridSize="10" guides="1" tooltips="1" connect="1" arrows="1" fold="1" page="1" pageScale="1" pageWidth="1100" pageHeight="850" background="#ffffff" math="0" shadow="0">
      <root>
        <mxCell id="0"/>
        <mxCell id="1" parent="0"/>
        <mxCell id="7baba1c4bc27f4b0-2" value="InBoundReactiv&lt;br&gt;eProcessor" style="html=1;points=[];perimeter=orthogonalPerimeter;shape=umlLifeline;participant=label;shadow=0;fontFamily=Verdana;fontSize=12;fontColor=#000000;align=center;strokeColor=#000000;strokeWidth=1;fillColor=#ffffff;recursiveResize=0;container=1;collapsible=0;" parent="1" vertex="1">
          <mxGeometry x="170" y="60" width="100" height="430" as="geometry"/>
        </mxCell>
        <mxCell id="zrXwyX3jqCsdcKmLa_xi-9" value="" style="html=1;points=[];perimeter=orthogonalPerimeter;" vertex="1" parent="7baba1c4bc27f4b0-2">
          <mxGeometry x="45" y="200" width="10" height="210" as="geometry"/>
        </mxCell>
        <mxCell id="7baba1c4bc27f4b0-10" value="" style="html=1;points=[];perimeter=orthogonalPerimeter;rounded=0;shadow=0;comic=0;labelBackgroundColor=none;strokeWidth=1;fontFamily=Verdana;fontSize=12;align=center;" parent="7baba1c4bc27f4b0-2" vertex="1">
          <mxGeometry x="45" y="100" width="10" height="30" as="geometry"/>
        </mxCell>
        <mxCell id="zrXwyX3jqCsdcKmLa_xi-7" value="" style="html=1;points=[];perimeter=orthogonalPerimeter;" vertex="1" parent="7baba1c4bc27f4b0-2">
          <mxGeometry x="45" y="150" width="10" height="30" as="geometry"/>
        </mxCell>
        <mxCell id="zrXwyX3jqCsdcKmLa_xi-8" value="decodeHead" style="edgeStyle=orthogonalEdgeStyle;html=1;align=left;spacingLeft=2;endArrow=block;rounded=0;entryX=1;entryY=0;" edge="1" target="zrXwyX3jqCsdcKmLa_xi-7" parent="7baba1c4bc27f4b0-2">
          <mxGeometry relative="1" as="geometry">
            <mxPoint x="50" y="130" as="sourcePoint"/>
            <Array as="points">
              <mxPoint x="75" y="130"/>
            </Array>
          </mxGeometry>
        </mxCell>
        <mxCell id="zrXwyX3jqCsdcKmLa_xi-10" value="checkMessageHead" style="edgeStyle=orthogonalEdgeStyle;html=1;align=left;spacingLeft=2;endArrow=block;rounded=0;entryX=1;entryY=0;" edge="1" target="zrXwyX3jqCsdcKmLa_xi-9" parent="7baba1c4bc27f4b0-2">
          <mxGeometry relative="1" as="geometry">
            <mxPoint x="50" y="180" as="sourcePoint"/>
            <Array as="points">
              <mxPoint x="75" y="180"/>
            </Array>
          </mxGeometry>
        </mxCell>
        <mxCell id="7baba1c4bc27f4b0-4" value="CimMessage&lt;br&gt;DeCoder" style="shape=umlLifeline;perimeter=lifelinePerimeter;whiteSpace=wrap;html=1;container=1;collapsible=0;recursiveResize=0;outlineConnect=0;rounded=1;shadow=0;comic=0;labelBackgroundColor=none;strokeWidth=1;fontFamily=Verdana;fontSize=12;align=center;" parent="1" vertex="1">
          <mxGeometry x="450" y="60" width="100" height="430" as="geometry"/>
        </mxCell>
        <mxCell id="zrXwyX3jqCsdcKmLa_xi-19" value="" style="html=1;points=[];perimeter=orthogonalPerimeter;" vertex="1" parent="7baba1c4bc27f4b0-4">
          <mxGeometry x="50" y="270" width="10" height="30" as="geometry"/>
        </mxCell>
        <mxCell id="7baba1c4bc27f4b0-6" value="InBoundBusiness&lt;br&gt;Handler" style="shape=umlLifeline;perimeter=lifelinePerimeter;whiteSpace=wrap;html=1;container=1;collapsible=0;recursiveResize=0;outlineConnect=0;rounded=1;shadow=0;comic=0;labelBackgroundColor=none;strokeWidth=1;fontFamily=Verdana;fontSize=12;align=center;" parent="1" vertex="1">
          <mxGeometry x="710" y="60" width="100" height="430" as="geometry"/>
        </mxCell>
        <mxCell id="UPH5F2fsNetTROs69LHZ-11" value="" style="html=1;points=[];perimeter=orthogonalPerimeter;" parent="7baba1c4bc27f4b0-6" vertex="1">
          <mxGeometry x="45" y="360" width="10" height="60" as="geometry"/>
        </mxCell>
        <mxCell id="7baba1c4bc27f4b0-8" value="WebSocketSession" style="shape=umlLifeline;perimeter=lifelinePerimeter;whiteSpace=wrap;html=1;container=1;collapsible=0;recursiveResize=0;outlineConnect=0;rounded=1;shadow=0;comic=0;labelBackgroundColor=none;strokeWidth=1;fontFamily=Verdana;fontSize=12;align=center;" parent="1" vertex="1">
          <mxGeometry x="20" y="60" width="120" height="430" as="geometry"/>
        </mxCell>
        <mxCell id="7baba1c4bc27f4b0-9" value="" style="html=1;points=[];perimeter=orthogonalPerimeter;rounded=0;shadow=0;comic=0;labelBackgroundColor=none;strokeWidth=1;fontFamily=Verdana;fontSize=12;align=center;" parent="7baba1c4bc27f4b0-8" vertex="1">
          <mxGeometry x="55" y="100" width="10" height="320" as="geometry"/>
        </mxCell>
        <mxCell id="7baba1c4bc27f4b0-11" value="process" style="html=1;verticalAlign=bottom;endArrow=block;entryX=0;entryY=0;labelBackgroundColor=none;fontFamily=Verdana;fontSize=12;edgeStyle=elbowEdgeStyle;elbow=vertical;" parent="1" source="7baba1c4bc27f4b0-9" target="7baba1c4bc27f4b0-10" edge="1">
          <mxGeometry relative="1" as="geometry">
            <mxPoint x="240" y="170" as="sourcePoint"/>
          </mxGeometry>
        </mxCell>
        <mxCell id="zrXwyX3jqCsdcKmLa_xi-3" value="handle" style="html=1;verticalAlign=bottom;endArrow=block;entryX=0;entryY=0.617;entryDx=0;entryDy=0;entryPerimeter=0;" edge="1" parent="1" source="zrXwyX3jqCsdcKmLa_xi-9" target="UPH5F2fsNetTROs69LHZ-11">
          <mxGeometry width="80" relative="1" as="geometry">
            <mxPoint x="317" y="459" as="sourcePoint"/>
            <mxPoint x="511" y="460" as="targetPoint"/>
          </mxGeometry>
        </mxCell>
        <mxCell id="zrXwyX3jqCsdcKmLa_xi-11" value="CimMessage&lt;br&gt;DeCoderFactory" style="html=1;points=[];perimeter=orthogonalPerimeter;shape=umlLifeline;participant=label;shadow=0;fontFamily=Verdana;fontSize=12;fontColor=#000000;align=center;strokeColor=#000000;strokeWidth=1;fillColor=#ffffff;recursiveResize=0;container=1;collapsible=0;" vertex="1" parent="1">
          <mxGeometry x="330" y="60" width="100" height="430" as="geometry"/>
        </mxCell>
        <mxCell id="zrXwyX3jqCsdcKmLa_xi-15" value="" style="html=1;points=[];perimeter=orthogonalPerimeter;" vertex="1" parent="zrXwyX3jqCsdcKmLa_xi-11">
          <mxGeometry x="45" y="220" width="10" height="40" as="geometry"/>
        </mxCell>
        <mxCell id="zrXwyX3jqCsdcKmLa_xi-16" value="getCimMessageDecoder" style="edgeStyle=orthogonalEdgeStyle;rounded=0;orthogonalLoop=1;jettySize=auto;html=1;entryX=0.1;entryY=0.246;entryDx=0;entryDy=0;entryPerimeter=0;" edge="1" parent="1" target="zrXwyX3jqCsdcKmLa_xi-15">
          <mxGeometry relative="1" as="geometry">
            <mxPoint x="226" y="290" as="sourcePoint"/>
            <mxPoint x="360" y="297" as="targetPoint"/>
          </mxGeometry>
        </mxCell>
        <mxCell id="zrXwyX3jqCsdcKmLa_xi-20" value="decode" style="html=1;verticalAlign=bottom;startArrow=oval;endArrow=block;startSize=8;exitX=1;exitY=0.376;exitDx=0;exitDy=0;exitPerimeter=0;" edge="1" target="zrXwyX3jqCsdcKmLa_xi-19" parent="1" source="zrXwyX3jqCsdcKmLa_xi-9">
          <mxGeometry relative="1" as="geometry">
            <mxPoint x="440" y="330" as="sourcePoint"/>
          </mxGeometry>
        </mxCell>
        <mxCell id="zrXwyX3jqCsdcKmLa_xi-21" value="BusinessHandler&lt;br&gt;Factory" style="shape=umlLifeline;perimeter=lifelinePerimeter;whiteSpace=wrap;html=1;container=1;collapsible=0;recursiveResize=0;outlineConnect=0;rounded=1;shadow=0;comic=0;labelBackgroundColor=none;strokeWidth=1;fontFamily=Verdana;fontSize=12;align=center;" vertex="1" parent="1">
          <mxGeometry x="570" y="60" width="100" height="430" as="geometry"/>
        </mxCell>
        <mxCell id="zrXwyX3jqCsdcKmLa_xi-24" value="" style="html=1;points=[];perimeter=orthogonalPerimeter;" vertex="1" parent="zrXwyX3jqCsdcKmLa_xi-21">
          <mxGeometry x="44" y="324.06" width="10" height="45.94" as="geometry"/>
        </mxCell>
        <mxCell id="zrXwyX3jqCsdcKmLa_xi-25" value="getInboundBusinessHandler" style="html=1;verticalAlign=bottom;startArrow=oval;endArrow=block;startSize=8;exitX=1.3;exitY=0.59;exitDx=0;exitDy=0;exitPerimeter=0;" edge="1" target="zrXwyX3jqCsdcKmLa_xi-24" parent="1" source="zrXwyX3jqCsdcKmLa_xi-9">
          <mxGeometry relative="1" as="geometry">
            <mxPoint x="520" y="384.00000000000006" as="sourcePoint"/>
          </mxGeometry>
        </mxCell>
      </root>
    </mxGraphModel>
  </diagram>
</mxfile>
